<svg width="28" height="27" viewBox="0 0 28 27" xmlns="http://www.w3.org/2000/svg"><title>1CEFAAE8-E488-4D24-BAB9-02EBFDAE0EE6</title><path d="M14 0C6.268 0 0 6.197 0 13.843c0 6.114 4.011 11.303 9.575 13.133.7.127.956-.3.956-.667 0-.329-.013-1.199-.02-2.354-3.894.837-4.716-1.856-4.716-1.856-.636-1.598-1.554-2.024-1.554-2.024-1.271-.859.096-.842.096-.842 1.405.098 2.144 1.427 2.144 1.427 1.25 2.115 3.277 1.504 4.075 1.15.127-.895.49-1.505.889-1.85-3.109-.35-6.377-1.537-6.377-6.841 0-1.512.545-2.747 1.441-3.715-.144-.35-.625-1.757.137-3.663 0 0 1.176-.372 3.85 1.419A13.584 13.584 0 0 1 14 6.693a13.6 13.6 0 0 1 3.505.467c2.672-1.791 3.846-1.42 3.846-1.42.764 1.907.283 3.313.139 3.664.898.968 1.44 2.203 1.44 3.715 0 5.317-3.274 6.487-6.393 6.83.503.427.95 1.271.95 2.563 0 1.85-.017 3.343-.017 3.797 0 .37.252.801.963.665C23.992 25.14 28 19.956 28 13.843 28 6.197 21.732 0 14 0" fill-rule="nonzero" fill="#000"/></svg>